<svg width="24" height="25" viewBox="0 0 24 25" fill="none" xmlns="http://www.w3.org/2000/svg">
<path d="M12 2.72827V8.72827C12 9.83284 12.8954 10.7283 14 10.7283H20V21.2283C20 22.0567 19.3284 22.7283 18.5 22.7283H14V17.4783C14 15.9596 12.7688 14.7283 11.25 14.7283V13.7283C11.25 12.8999 10.5784 12.2283 9.75 12.2283H4.5C4.32468 12.2283 4.15639 12.2584 4 12.3137V4.22827C4 3.39984 4.67157 2.72827 5.5 2.72827H12Z" fill="#668EC5"/>
<path d="M13.5 3.22827V8.72827C13.5 9.00441 13.7239 9.22827 14 9.22827H19.5L13.5 3.22827Z" fill="#668EC5"/>
<path d="M3.75 13.9783C3.75 13.5641 4.08579 13.2283 4.5 13.2283H9.5C9.91421 13.2283 10.25 13.5641 10.25 13.9783V15.7283H10.75C11.9926 15.7283 13 16.7357 13 17.9783V21.4783C13 22.7209 11.9926 23.7283 10.75 23.7283H3.25C2.00736 23.7283 1 22.7209 1 21.4783V17.9783C1 16.7357 2.00736 15.7283 3.25 15.7283H3.75V13.9783ZM8.75 14.7283H5.25V15.7283H8.75V14.7283ZM3.25 17.2283C2.83579 17.2283 2.5 17.5641 2.5 17.9783V21.4783C2.5 21.8925 2.83579 22.2283 3.25 22.2283H10.75C11.1642 22.2283 11.5 21.8925 11.5 21.4783V17.9783C11.5 17.5641 11.1642 17.2283 10.75 17.2283H3.25Z" fill="#668EC5"/>
</svg>
