<svg width="24" height="25" viewBox="0 0 24 25" fill="none" xmlns="http://www.w3.org/2000/svg">
<path d="M5.74908 3.75305C6.99122 3.75305 7.99817 4.76 7.99817 6.00213V19.504C7.99817 20.7461 6.99122 21.7531 5.74908 21.7531C4.50695 21.7531 3.5 20.7461 3.5 19.504V6.00213C3.5 4.76 4.50695 3.75305 5.74908 3.75305ZM12.2491 7.75305C13.4912 7.75305 14.4982 8.76 14.4982 10.0021V19.504C14.4982 20.7461 13.4912 21.7531 12.2491 21.7531C11.0069 21.7531 10 20.7461 10 19.504V10.0021C10 8.76 11.0069 7.75305 12.2491 7.75305ZM18.7491 11.7531C19.9912 11.7531 20.9982 12.76 20.9982 14.0021V19.504C20.9982 20.7461 19.9912 21.7531 18.7491 21.7531C17.5069 21.7531 16.5 20.7461 16.5 19.504V14.0021C16.5 12.76 17.5069 11.7531 18.7491 11.7531Z" fill="white"/>
</svg>
