<svg width="24" height="25" viewBox="0 0 24 25" fill="none" xmlns="http://www.w3.org/2000/svg">
<path d="M8.09991 3.72839C6.27733 3.72839 4.79983 5.20589 4.79983 7.02848V10.7869C4.79983 11.2634 4.53342 11.6993 4.11054 11.9169C3.80838 12.0621 3.59979 12.371 3.59979 12.7286C3.59979 13.0863 3.80838 13.3952 4.11054 13.5404C4.53342 13.758 4.79983 14.1939 4.79983 14.6703V18.4288C4.79983 20.2514 6.27733 21.7289 8.09991 21.7289C8.59698 21.7289 8.99994 21.3259 8.99994 20.8289C8.99994 20.3318 8.59698 19.9288 8.09991 19.9288C7.27147 19.9288 6.59987 19.2572 6.59987 18.4288V14.6703C6.59987 13.9496 6.34757 13.2672 5.90815 12.7286C6.34757 12.19 6.59987 11.5077 6.59987 10.7869V7.02848C6.59987 6.20003 7.27147 5.52844 8.09991 5.52844C8.59698 5.52844 8.99994 5.12549 8.99994 4.62842C8.99994 4.13135 8.59698 3.72839 8.09991 3.72839ZM15.9001 3.72839C17.7227 3.72839 19.2002 5.20589 19.2002 7.02848V10.7869C19.2002 11.2634 19.4666 11.6993 19.8895 11.9169C20.1917 12.0621 20.4002 12.371 20.4002 12.7286C20.4002 13.0863 20.1917 13.3952 19.8895 13.5404C19.4666 13.758 19.2002 14.1939 19.2002 14.6703V18.4288C19.2002 20.2514 17.7227 21.7289 15.9001 21.7289C15.4031 21.7289 15.0001 21.3259 15.0001 20.8289C15.0001 20.3318 15.4031 19.9288 15.9001 19.9288C16.7286 19.9288 17.4002 19.2572 17.4002 18.4288V14.6703C17.4002 13.9496 17.6525 13.2672 18.0919 12.7286C17.6525 12.19 17.4002 11.5077 17.4002 10.7869V7.02848C17.4002 6.20003 16.7286 5.52844 15.9001 5.52844C15.4031 5.52844 15.0001 5.12549 15.0001 4.62842C15.0001 4.13135 15.4031 3.72839 15.9001 3.72839Z" fill="#668EC5"/>
</svg>
