<svg width="20" height="21" viewBox="0 0 20 21" fill="none" xmlns="http://www.w3.org/2000/svg">
<path d="M14.75 0.729675C11.8505 0.729675 9.5 3.08019 9.5 5.97968C9.5 6.53253 9.5857 7.06646 9.7449 7.56828L0.67746 16.9484C-0.2824 17.9414 -0.17996 19.5448 0.89846 20.4075C1.84289 21.1631 3.20713 21.0759 4.04773 20.2063L13.0105 10.9345C13.5556 11.1258 14.1413 11.2297 14.75 11.2297C17.6495 11.2297 20 8.87918 20 5.97968C20 5.47702 19.9292 4.98964 19.7964 4.52761C19.7231 4.27239 19.5203 4.07497 19.2632 4.00855C19.0061 3.94212 18.733 4.01661 18.5453 4.20437L15.3612 7.38842L13.3005 5.32777L16.4616 2.16666C16.6508 1.97749 16.7249 1.70188 16.6561 1.44336C16.5872 1.18484 16.3859 0.982555 16.1277 0.912495C15.6878 0.793145 15.2258 0.729675 14.75 0.729675Z" fill="#668EC5"/>
</svg>
