<svg width="24" height="25" viewBox="0 0 24 25" fill="none" xmlns="http://www.w3.org/2000/svg">
<path d="M13.4822 17.9853L12.7071 17.2102L15.1893 14.728C16.5562 13.3611 16.5562 11.145 15.1893 9.77816L12.7071 7.29593L13.4822 6.52081C14.4585 5.54449 16.0414 5.54449 17.0178 6.52081L20.9822 10.4853C21.9585 11.4616 21.9585 13.0445 20.9822 14.0209L17.0178 17.9853C16.0414 18.9616 14.4585 18.9616 13.4822 17.9853Z" fill="#668EC5"/>
<path d="M14.4822 14.0209C15.4585 13.0445 15.4585 11.4616 14.4822 10.4853L10.5178 6.52081C9.54144 5.54449 7.95853 5.5445 6.98222 6.52081L3.01776 10.4853C2.04144 11.4616 2.04145 13.0445 3.01776 14.0209L6.98222 17.9853C7.95853 18.9616 9.54144 18.9616 10.5178 17.9853L14.4822 14.0209Z" fill="#668EC5"/>
</svg>
