<svg width="25" height="25" viewBox="0 0 25 25" fill="none" xmlns="http://www.w3.org/2000/svg">
<path d="M8.73633 6.50308C8.73633 4.43075 10.4163 2.75079 12.4886 2.75079C14.561 2.75079 16.2409 4.43075 16.2409 6.50308C16.2409 8.31851 14.9517 9.83281 13.2388 10.1804V12.2531H16.4888C17.7314 12.2531 18.7388 13.2605 18.7388 14.5031V15.3276C20.4529 15.6742 21.7434 17.1891 21.7434 19.0054C21.7434 21.0777 20.0634 22.7577 17.9911 22.7577C15.9188 22.7577 14.2388 21.0777 14.2388 19.0054C14.2388 17.1907 15.527 15.6769 17.2388 15.3285V14.5031C17.2388 14.0889 16.903 13.7531 16.4888 13.7531H8.48877C8.07456 13.7531 7.73877 14.0889 7.73877 14.5031V15.3276C9.45286 15.6742 10.7434 17.1891 10.7434 19.0054C10.7434 21.0777 9.06338 22.7577 6.99105 22.7577C4.91873 22.7577 3.23877 21.0777 3.23877 19.0054C3.23877 17.1907 4.52696 15.6769 6.23877 15.3285V14.5031C6.23877 13.2605 7.24613 12.2531 8.48877 12.2531H11.7388V10.1804C10.0257 9.833 8.73633 8.31862 8.73633 6.50308Z" fill="white"/>
</svg>
