<svg width="24" height="25" viewBox="0 0 24 25" fill="none" xmlns="http://www.w3.org/2000/svg">
<path d="M12.8345 3.89055C12.8911 3.84768 12.9406 3.79755 12.9821 3.74198H15.5437C15.5556 3.74198 15.5674 3.7417 15.5793 3.74114C15.7492 3.73307 15.9191 3.73312 16.0884 3.74114C16.1002 3.7417 16.1121 3.74198 16.1239 3.74198H16.1622C16.7372 3.74198 17.2807 3.86804 17.7684 4.09332C17.7813 4.09929 17.7944 4.10488 17.8076 4.11011C18.7252 4.4722 19.5443 5.08909 20.1474 5.93255C21.0565 7.20387 21.34 8.79778 20.9522 10.2807L17.6706 7.0431C17.5303 6.90463 17.3411 6.827 17.1439 6.827H12.3991C12.3889 6.827 12.3787 6.82721 12.3685 6.82762C12.2158 6.83385 12.0684 6.88661 11.9462 6.9792L10.0616 8.407C10.0085 8.44725 9.95249 8.48118 9.89454 8.50891C9.4889 8.70305 8.98737 8.59366 8.7038 8.22322C8.66351 8.17059 8.62952 8.11518 8.60172 8.05787C8.4071 7.65671 8.51544 7.16281 8.88525 6.88263L12.8345 3.89055Z" fill="#668EC5"/>
<path d="M7.89845 14.964L7.88521 14.977L6.91113 15.9449L6.89834 15.9577C6.54531 16.2946 5.98423 16.2903 5.63651 15.9448C5.28441 15.595 5.28441 15.0278 5.63651 14.6779L6.61059 13.7101C6.96269 13.3602 7.53355 13.3602 7.88565 13.7101C8.23343 14.0556 8.23769 14.6133 7.89845 14.964Z" fill="#668EC5"/>
<path d="M7.6077 16.6627C7.26847 17.0135 7.27275 17.5711 7.62052 17.9166C7.97262 18.2665 8.54349 18.2665 8.89559 17.9166L9.86966 16.9488C10.2218 16.5989 10.2218 16.0317 9.86966 15.6819C9.8262 15.6387 9.77939 15.6008 9.73008 15.5683C9.38491 15.3406 8.91672 15.3742 8.60782 15.669L8.59503 15.6818L7.62095 16.6497L7.6077 16.6627Z" fill="#668EC5"/>
<path d="M5.50058 12.1362C5.85268 12.4861 5.85268 13.0533 5.50058 13.4031L4.5265 14.371C4.1744 14.7208 3.60354 14.7208 3.25144 14.371C2.89934 14.0211 2.89934 13.4539 3.25144 13.1041L4.22552 12.1362C4.57761 11.7864 5.14848 11.7864 5.50058 12.1362Z" fill="#668EC5"/>
<path d="M11.8542 17.6536C12.2063 18.0035 12.2063 18.5707 11.8542 18.9205L10.8801 19.8884C10.8078 19.9601 10.7264 20.0172 10.6395 20.0595C10.303 20.2235 9.88489 20.1664 9.60502 19.8884C9.32515 19.6103 9.26774 19.1949 9.43277 18.8605L9.43404 18.8579C9.4765 18.7726 9.5335 18.6925 9.60502 18.6215L10.5791 17.6536C10.9312 17.3038 11.5021 17.3038 11.8542 17.6536Z" fill="#668EC5"/>
<path d="M5.34393 5.55937C6.73957 4.17265 8.63786 3.58975 10.456 3.81068L7.97946 5.68706C6.89418 6.50931 6.68512 8.05387 7.51278 9.13504C8.33865 10.2139 9.88454 10.4231 10.9675 9.60263L12.6511 8.32703H16.8362L20.3426 11.7864C20.3538 11.8002 20.3658 11.8136 20.3786 11.8264L21.5285 12.9764C22.0903 13.5382 22.0903 14.449 21.5285 15.0108C20.9987 15.5406 20.1585 15.5708 19.5934 15.1014L19.4971 15.0051C19.4781 14.9861 19.458 14.969 19.437 14.9537L18.3441 13.8609C18.1488 13.6656 17.8323 13.6656 17.637 13.8609C17.4417 14.0561 17.4417 14.3727 17.637 14.568L18.787 15.7179C18.8286 15.7595 18.8713 15.7993 18.915 15.8373L18.9589 15.8811C19.3568 16.2791 19.3568 16.9243 18.9589 17.3223C18.5609 17.7203 17.9156 17.7203 17.5177 17.3223L17.3488 17.1534C17.1535 16.9581 16.8369 16.9581 16.6417 17.1534C16.5415 17.2535 16.4928 17.3855 16.4953 17.5167C16.4924 17.6484 16.5411 17.781 16.6416 17.8815L16.8646 18.1045C17.2327 18.4726 17.2327 19.0694 16.8646 19.4375C16.4965 19.8056 15.8997 19.8056 15.5316 19.4375L15.5305 19.4364L15.5188 19.4245L15.3087 19.2145C15.2363 19.142 15.1471 19.0964 15.0536 19.0778C14.8951 19.0461 14.7243 19.0916 14.6015 19.2145C14.4063 19.4097 14.4063 19.7263 14.6015 19.9216L14.8199 20.14C15.1869 20.5159 15.1842 21.1181 14.8117 21.4906C14.4431 21.8591 13.848 21.8667 13.4702 21.5076L12.0386 20.147L12.5635 19.6254C13.3074 18.8862 13.3074 17.6879 12.5635 16.9488C12.1709 16.5586 11.6495 16.3744 11.1352 16.3962C11.1571 15.8852 10.9717 15.3672 10.579 14.977C10.1865 14.587 9.66534 14.4028 9.15126 14.4244C9.17311 13.9135 8.98772 13.3954 8.59508 13.0053C8.09547 12.5088 7.38736 12.3458 6.75083 12.5162C6.69717 12.1195 6.51689 11.7363 6.20998 11.4314C5.52354 10.7493 4.44354 10.6967 3.69633 11.2734C3.23457 9.28383 3.78377 7.10954 5.34393 5.55937Z" fill="#668EC5"/>
</svg>
